<svg xmlns="http://www.w3.org/2000/svg" xmlns:xlink="http://www.w3.org/1999/xlink" width="727" height="178.25" viewBox="0 0 727 178.25">
  <defs>
    <clipPath id="clip-path">
      <rect id="Rectangle_3" data-name="Rectangle 3" width="706" height="178.25" fill="#fff"/>
    </clipPath>
  </defs>
  <g id="Group_123" data-name="Group 123" transform="translate(-287 -262.79)">
    <g id="Group_118" data-name="Group 118" transform="translate(308 262.79)">
      <g id="Group_1" data-name="Group 1" clip-path="url(#clip-path)">
        <path id="Path_1" data-name="Path 1" d="M155.784,167.222c.574,1.174.057-.6.116-.143-.094-.73-.18-1.462-.268-2.192q-.322-2.681-.639-5.364c-.245-2.051.067-7.122-2.419-7.82a2.409,2.409,0,0,0-2.978,2.378l0,.031H154.3q-3.238-39.32-3.765-78.811-.254-19.527.163-39.055.207-9.761.584-19.519c.125-3.25.337-6.5.419-9.753.058-2.263-.3-4.769-2.316-6.053-2.476-1.575-6.555-.692-9.28-.5C136.921.633,133.752,1,130.6,1.48a111.794,111.794,0,0,0-20.245,5.073,2.515,2.515,0,0,0-1.727,2.378c.639,25.56,1.112,51.126,1.751,76.684l2.353-2.467a139.9,139.9,0,0,0-86.6,26.636c-8.163,6-16.828,13.036-22.269,21.939-2.818,4.611-4.5,10.025-3.629,15.521A20.69,20.69,0,0,0,7.415,159.5c8.765,7.479,21.131,7.658,31.9,7.885a191.517,191.517,0,0,0,35.865-2.672q8.731-1.473,17.313-3.759,4.283-1.145,8.517-2.488,2.116-.673,4.216-1.4c1.426-.49,3.191-1.473,4.718-1.449,2.717.044,3.033,4.963,3.53,7.017.762,3.152,1.4,6.374,2.311,9.484.8,2.75,2.316,5.073,5.1,5.835,2.331.638,4.89.109,7.222-.3,8.892-1.554,17.609-4.254,26.277-6.81,2.91-.857,1.674-5.619-1.252-4.756-7.5,2.209-15,4.422-22.63,6.083-2.755.6-8.7,2.784-10.014-.819-1.851-5.063-2.062-10.737-4.04-15.761a7.428,7.428,0,0,0-3.983-4.48c-2.628-1.026-5.282.082-7.79.955q-8.392,2.923-17.013,5.044a185.624,185.624,0,0,1-33.615,5.068q-8.463.488-16.942.21c-5.45-.181-11.025-.385-16.354-1.694-9.283-2.279-18.7-10.028-15.328-21.13,1.506-4.953,4.917-9.12,8.376-12.723A110.771,110.771,0,0,1,24.506,117.1a134.7,134.7,0,0,1,88.222-29.022,2.433,2.433,0,0,0,2.353-2.467c-.639-25.559-1.112-51.124-1.751-76.684l-1.727,2.38A107.449,107.449,0,0,1,145.31,5.118c1.039-.018,1.575-.386,1.7.747a30.291,30.291,0,0,1-.162,4.361q-.217,4.877-.391,9.755-.325,9.147-.505,18.3-.725,37.016.963,74.024.955,20.93,2.681,41.808a2.353,2.353,0,1,0,4.707,0l0-.031-2.979,2.38,0,0q-.821-.861-1.644-1.723a11.681,11.681,0,0,1,.271,2.021q.3,2.5.6,5,.282,2.385.573,4.771a10.117,10.117,0,0,0,.6,3.182c1.382,2.827,5.444.334,4.063-2.49" transform="translate(0 0)" fill="#fff"/>
        <path id="Path_2" data-name="Path 2" d="M162.977,142.9q-3.048-32.073-6.1-64.143-1.513-15.933-3.028-31.867c-.246-2.587-.461-5.179-.737-7.762-.195-1.814-.491-3.72-1.809-5.047-1.5-1.515-3.586-1.473-5.486-1.02-2.2.525-4.377,1.214-6.553,1.84-9.616,2.768-19.183,5.723-28.828,8.38a2.464,2.464,0,0,0-1.727,2.378q3.622,28.705,7.273,57.409,2.405,18.991,4.812,37.983.727,5.725,1.451,11.449c.195,1.529,1.352,2.881,2.979,2.38,11.9-3.672,23.919-6.756,36.023-9.6,2.954-.694,1.7-5.452-1.252-4.756-12.1,2.845-24.12,5.928-36.023,9.6l2.979,2.378q-1.852-14.625-3.706-29.252-2.156-17-4.311-34.01-2.765-21.789-5.519-43.579l-1.729,2.38c8-2.205,15.946-4.614,23.911-6.951q2.777-.814,5.562-1.615,1.574-.451,3.153-.9a14.32,14.32,0,0,1,3.073-.84c.839-.02.822.122.973,1.008.179,1.064.217,2.171.318,3.243q.369,3.88.737,7.762,2.836,29.825,5.67,59.649,1.591,16.752,3.183,33.5c.3,3.129,5.008,3.162,4.707,0" transform="translate(61.837 21.13)" fill="#fff"/>
        <path id="Path_3" data-name="Path 3" d="M113.781,15.841c-3.775,3.185-4.835,9.24-3.423,13.931a10.907,10.907,0,0,0,4.327,6.111,14.183,14.183,0,0,0,9.089,1.927,22.766,22.766,0,0,0,9.164-3.139c2.733-1.625,5.546-3.855,6.977-6.872,2.733-5.762-.2-12.357-5.154-15.563-6.539-4.233-14.864-1.247-20.5,3.22a2.618,2.618,0,0,0-.844,3.376,2.31,2.31,0,0,0,3.219.885c3.856-3.054,9.01-5.711,13.932-4.118,3.4,1.1,6.456,5.134,5.613,8.7-.527,2.232-2.306,3.866-4.06,5.1a20.13,20.13,0,0,1-6.638,3.138,11.955,11.955,0,0,1-6.892-.173,6.789,6.789,0,0,1-1.312-.61,3.411,3.411,0,0,1-.72-.525,5.481,5.481,0,0,1-1.382-2,10.153,10.153,0,0,1-.617-5.042,7.193,7.193,0,0,1,2.551-4.863,2.565,2.565,0,0,0,0-3.488,2.327,2.327,0,0,0-3.326,0" transform="translate(62.44 6.57)" fill="#fff"/>
        <path id="Path_4" data-name="Path 4" d="M166.106,15.93c.121,9.767-1.115,19.5-.995,29.27.017,1.442,1.516,3,2.979,2.378,15.463-6.6,31.665-13.534,48.7-12.171a41.809,41.809,0,0,1,21.078,7.346c5.792,4.144,10.132,10.125,13.251,16.646,3.627,7.583,5.6,15.955,6.749,24.314l2.895-3.034a116.744,116.744,0,0,0-52.779-4.253c-15.515,2.311-32.123,7.517-43.524,19.37-10.345,10.755-15.53,28.542-7.946,42.52,7.943,14.639,25.192,18.887,40.1,17.871,10.075-.686,20.137-2.9,29.925-5.415a244.5,244.5,0,0,0,29.7-9.707q-1.33-.567-2.658-1.133a35.052,35.052,0,0,1,3.146,20.469c-.469,3.106,4.065,4.443,4.539,1.312a40.986,40.986,0,0,0-3.621-24.271A2.317,2.317,0,0,0,255,136.307a238.539,238.539,0,0,1-48.6,13.748c-14.434,2.426-31.566,2.621-42.409-9.418-9.716-10.785-7.322-27.718,1.247-38.442,9.6-12.023,24.752-17.377,39.007-20.155a111.683,111.683,0,0,1,55.277,3.4c1.892.607,3.135-1.288,2.895-3.034-2.107-15.322-7.4-31.558-19.246-41.619-13.02-11.058-30.723-12.187-46.541-8.611-10.286,2.325-20.074,6.5-29.787,10.648l2.979,2.38c-.121-9.768,1.115-19.5.995-29.27-.039-3.172-4.746-3.18-4.707,0" transform="translate(86.988 8.731)" fill="#fff"/>
        <path id="Path_5" data-name="Path 5" d="M164.269,22.518a222.836,222.836,0,0,1,52.613-10.13c13.547-.923,27.459-.6,40.433,4.036a45.637,45.637,0,0,1,16.153,9.564A41.754,41.754,0,0,1,284.576,45.1c2.425,8.385,3.555,17.229,4.7,25.886q1.9,14.371,2.735,28.871a412.312,412.312,0,0,1-1.232,64.088c-.307,3.156,4.4,3.133,4.707,0a412.716,412.716,0,0,0,1.487-59.282q-.7-14.823-2.471-29.56c-1.12-9.309-2.286-18.754-4.476-27.864-1.9-7.926-5.035-15.468-10.264-21.617a46.075,46.075,0,0,0-15.852-11.763C251.327,8.053,237.2,6.63,223.578,7.1a225.2,225.2,0,0,0-60.561,10.66c-2.888.923-1.657,5.687,1.252,4.758" transform="translate(91.802 4.523)" fill="#fff"/>
        <path id="Path_6" data-name="Path 6" d="M221.358,107.2c12.97-.7,25.967-.617,38.937-1.322,3.014-.163,3.033-5.1,0-4.934-12.97.706-25.967.618-38.937,1.322-3.014.164-3.033,5.1,0,4.934" transform="translate(124.637 65.055)" fill="#fff"/>
        <path id="Path_7" data-name="Path 7" d="M253.695,16.789q5.234,52.376,10.912,104.7,1.612,14.862,3.262,29.719c.342,3.082,4.931,3.217,4.707,0a.7.7,0,0,1-.006-.128l-4.385,1.245c-.469-1.074-.108.178-.053.553.1.689.2,1.378.295,2.067a11.975,11.975,0,0,0,.621,3.128c1.021,2.338,4.341,1.028,4.385-1.245a.715.715,0,0,0,0-.13c-.22-3.148-4.928-3.172-4.707,0a.718.718,0,0,1,0,.13l4.387-1.245c.468,1.072.108-.178.053-.553-.1-.689-.2-1.378-.3-2.067a11.979,11.979,0,0,0-.621-3.128c-1.02-2.338-4.34-1.028-4.385,1.245a.7.7,0,0,0,.006.128h4.707q-5.8-52.307-11.164-104.67-1.523-14.874-3.009-29.751c-.312-3.126-5.022-3.159-4.707,0" transform="translate(144.314 9.301)" fill="#fff"/>
        <path id="Path_8" data-name="Path 8" d="M256.624,22.056c4.429-1.669,9.445-1.189,14.068-1.556a25.412,25.412,0,0,0,6.864-1.266c2.843-1.052,5.962-2.559,9.027-1.668,5.06,1.47,7.06,8.944,8.709,13.421a191.117,191.117,0,0,1,6.247,20.487,2.341,2.341,0,0,0,4.3.589c6.958-12.2,14.94-24.751,27.051-31.883,11.291-6.652,25.1-7.515,35.67,1.112,9.818,8.01,15.022,20.75,17.749,33.128,3.474,15.776,3.712,32.235,4.176,48.348q.817,28.4.028,56.821c-.086,3.176,4.62,3.172,4.707,0q.734-26.781.06-53.574c-.439-17.113-.648-34.607-4.112-51.4-2.755-13.357-8.207-27.068-18.411-36.065a33.218,33.218,0,0,0-17.076-8.254,37.112,37.112,0,0,0-20.519,3.236c-15.286,6.839-25.14,21.587-33.386,36.046l4.3.589a190.966,190.966,0,0,0-6.928-22.308c-2.115-5.557-4.465-12.194-10.191-14.631-6.037-2.57-11.527,1.71-17.454,2.273-5.287.5-11.059-.11-16.133,1.8-2.829,1.067-1.608,5.836,1.252,4.758" transform="translate(144.364 6.414)" fill="#fff"/>
        <path id="Path_9" data-name="Path 9" d="M265.586,138.225c10.954-.781,21.913-1.628,32.816-3a2.482,2.482,0,0,0,2.353-2.467,254.086,254.086,0,0,1,4.12-41.731c1.92-10.119,4.876-20.823,11.283-28.9,5.522-6.966,15.643-13.468,24.374-8.788,4.917,2.633,5.874,8.356,6.431,13.613.755,7.1,1.365,14.223,1.9,21.347,1.21,16.269,1.959,32.573,2.708,48.873a2.441,2.441,0,0,0,2.353,2.467c10.817-.834,22.063-3.475,32.887-1.5,2.962.541,4.234-4.212,1.25-4.756-11.331-2.069-22.815.449-34.137,1.322l2.353,2.467c-.717-15.628-1.435-31.257-2.56-46.858-.562-7.8-1.217-15.59-2.043-23.362-.634-5.981-1.65-12.3-6.425-16.261-8.613-7.149-20.91-3.1-28.434,3.684-8.262,7.453-12.622,18.667-15.224,29.494-3.809,15.846-5.18,32.592-5.538,48.891l2.353-2.467c-10.9,1.373-21.862,2.22-32.816,3-3.006.214-3.028,5.149,0,4.933" transform="translate(149.801 30.242)" fill="#fff"/>
        <path id="Path_10" data-name="Path 10" d="M172.237,86.652c7.233-11.485,20.075-17.738,32.972-18.285A57.136,57.136,0,0,1,227.136,72c6.25,2.276,12.827,5.447,16.638,11.38,1.269,1.975,4.344.115,3.064-1.878-3.172-4.94-7.863-8.275-12.986-10.688a65.045,65.045,0,0,0-17.89-5.524c-11.6-1.756-23.637-.026-33.761,6.409a41.963,41.963,0,0,0-13.028,13.072c-1.261,2,1.811,3.869,3.064,1.878" transform="translate(96.071 41.665)" fill="#fff"/>
        <path id="Path_11" data-name="Path 11" d="M169.9,82.834c7.4,7.857,17.931,10.507,28.059,11.717,11.613,1.388,23.847,1.066,34.47-4.593a35.171,35.171,0,0,0,12.821-11.577c1.308-1.968-1.765-3.828-3.062-1.876C234.552,88,220.68,91.681,207.991,91.532c-12.08-.141-26.654-1.845-35.579-11.327-1.607-1.707-4.115.923-2.509,2.63" transform="translate(96.362 48.773)" fill="#fff"/>
        <path id="Path_12" data-name="Path 12" d="M185.953,68.654c-2.7-1.1-4.481,1.893-5.369,4.062a25.511,25.511,0,0,0-2.228,8.611c-.229,5.7,2.829,10.745,5.75,15.276,1.272,1.972,4.347.113,3.064-1.878-2.2-3.409-4.641-7.083-5.187-11.263a14.978,14.978,0,0,1,.808-6.53c.325-1.006.7-2,1.117-2.968a7.023,7.023,0,0,1,.7-1.393c.215-.293.226-.4.4-.329,2.129.868,3.051-2.727.943-3.587" transform="translate(101.457 44.095)" fill="#fff"/>
        <path id="Path_13" data-name="Path 13" d="M203.924,70.62a14.871,14.871,0,0,1,2.626,19.545,1.924,1.924,0,0,0,.637,2.544,1.768,1.768,0,0,0,2.427-.668c5.072-7.216,3.591-18.56-3.182-24.051a1.77,1.77,0,0,0-2.509,0,1.936,1.936,0,0,0,0,2.63" transform="translate(115.716 43.483)" fill="#fff"/>
        <path id="Path_14" data-name="Path 14" d="M186.609,72.9a60.957,60.957,0,0,1,20.455-2.149c2.062.132,4.471.181,6.1,1.686q.391-1.554.783-3.108-14.367,2.935-28.937,4.473.235,1.825.471,3.652a44.776,44.776,0,0,1,18.871-3.287l-.471-3.652a73.066,73.066,0,0,1-12.261,1.168q.238,1.828.472,3.652c3.866-1,7.764-1.85,11.7-2.5q3.085-.511,6.188-.857a12.676,12.676,0,0,1,2.879-.229c1.12.143,1.7,1,2.273,1.927,3.789,6.141,2.123,14.243.714,20.892-.37,1.746,1.68,3.2,2.965,1.809,8.376-9.086,6.032-24.309-4.9-29.862-1.473-.748-3.484.87-2.429,2.546a32.62,32.62,0,0,1,5.176,18.058c-.049,2-.467,3.23-2.189,4.175a20.127,20.127,0,0,1-4.241,1.524,89.893,89.893,0,0,1-9.951,2.09c-5.129.858-12.306,2.3-15.629-3.157a17.744,17.744,0,0,1-2.066-7.864c-.14-1.945-.265-5.53,1.9-6.374l-2.245-1.794c.505,5.019.96,10.045,1.519,15.055.4,3.588,1.745,7.454,5.775,7.533a1.867,1.867,0,0,0,1.774-1.858c.384-3.238-1.122-5.986-2.441-8.785a25.419,25.419,0,0,1-2.422-10.179c-.05-1.689-2.549-2.731-3.306-.939a12.822,12.822,0,0,0,.5,10.842,21.313,21.313,0,0,0,3.255,4.656c1.1,1.243,2.49,3.136,4.067,3.7a2.41,2.41,0,0,0,3.161-1.615c.494-1.618-.5-3.281-1.09-4.71q-2.838-6.818-5.675-13.634c-.8-1.914-3.932-.546-3.243,1.432l6.65,19.14a1.771,1.771,0,0,0,2.607,1.112c5.02-3.657,11.261-3.772,17.068-4.947,2.482-.5,6.3-1.08,7.968-3.305,1.749-2.334.577-6.187-.232-8.706-.88-2.738-2.11-5.856-4.344-7.67-2.378-1.931-5.42-1.714-8.218-1.194a150.489,150.489,0,0,0-20.62,5.576,1.86,1.86,0,0,0,.943,3.587,232.6,232.6,0,0,1,26.5-3.822l-.471-3.654-21.334,7.918a1.86,1.86,0,0,0,.944,3.587l20.173-4.059c1.952-.393,1.523-3.787-.472-3.654a98.813,98.813,0,0,0-22.763,4.226q.471,1.793.943,3.587a62.342,62.342,0,0,1,23.194-3.815q-.238-1.828-.472-3.654-11.637,3.017-23.274,6.03c-2.243.58-1.272,4.011.944,3.587q11.522-2.213,23.047-4.422-.473-1.793-.944-3.587l-20.734,6.663a1.86,1.86,0,0,0,.944,3.587l19.685-4.3q-.473-1.793-.944-3.587a88.636,88.636,0,0,0-17.568,6.723c-1.931.98-.48,3.74,1.367,3.4a132.668,132.668,0,0,0,19.429-5.146,1.86,1.86,0,0,0-.943-3.587,111.555,111.555,0,0,0-16.464,4.567c-1.767.638-1.641,3.876.471,3.652a64.284,64.284,0,0,0,14.939-3.37q-.682-1.7-1.366-3.4a68.754,68.754,0,0,0-5.839,3.937,1.924,1.924,0,0,0,.424,3.4,15.85,15.85,0,0,0,6.053.722q-.767-.459-1.533-.921a.844.844,0,0,1-.38,1.255c-1.991,1.173-.2,4.386,1.79,3.212a4.678,4.678,0,0,0,1.654-6.343,1.731,1.731,0,0,0-1.531-.921,13.062,13.062,0,0,1-5.108-.59l.424,3.4a68.482,68.482,0,0,1,5.838-3.937c1.7-1.025.576-4.093-1.367-3.4a60.337,60.337,0,0,1-14,3.236q.238,1.828.472,3.654a111.6,111.6,0,0,1,16.464-4.567q-.471-1.793-.943-3.587a132.661,132.661,0,0,1-19.429,5.146q.685,1.7,1.368,3.4a84.106,84.106,0,0,1,16.721-6.348c2.228-.587,1.279-4.073-.944-3.587l-19.685,4.3q.473,1.793.944,3.587,10.366-3.333,20.734-6.663a1.86,1.86,0,0,0-.944-3.587L188.906,83.5q.473,1.793.944,3.587l23.273-6.03c1.978-.511,1.5-3.6-.471-3.652a65.162,65.162,0,0,0-24.137,3.948c-2.132.779-1.271,4.274.943,3.587a94.592,94.592,0,0,1,21.82-4.093l-.471-3.652-20.174,4.059q.473,1.793.944,3.587l21.332-7.918c1.76-.653,1.65-3.835-.472-3.652a241.212,241.212,0,0,0-27.443,3.955q.471,1.793.943,3.587A169.929,169.929,0,0,1,202.7,76.057c2.341-.533,5.4-1.653,7.794-.895,2.584.819,3.773,4.614,4.478,7.03.329,1.131,1.3,3.845.479,4.9-.527.678-2.491.993-3.238,1.2a62.815,62.815,0,0,1-7.01,1.381c-4.769.761-9.575,1.636-13.618,4.582l2.606,1.112-6.65-19.14q-1.621.718-3.243,1.432,1.687,4.055,3.375,8.107.765,1.843,1.533,3.685c.323.776,1.729,3.085,1.436,3.858q.407-.557.814-1.112,1.257.276.22-.431l-.464-.457c-.463-.462-.921-.927-1.363-1.408a20.291,20.291,0,0,1-2.507-3.238c-1.458-2.412-2.289-5.5-1.134-8.237l-3.306-.939a29.153,29.153,0,0,0,1.869,9.661c1.163,3.019,3.4,5.9,2.993,9.3l1.774-1.86c-2.827-.058-2.52-6.7-2.716-8.652q-.515-5.109-1.031-10.219c-.11-1.089-1.059-2.255-2.245-1.793-4.92,1.916-4.862,8.02-4.212,12.6.81,5.711,3.6,10.911,9.267,12.39,5.689,1.482,12.206-.215,17.819-1.365,5.4-1.108,13.182-2.324,13.747-9.38.582-7.285-1.814-14.968-5.613-20.992q-1.212,1.273-2.427,2.544A15.382,15.382,0,0,1,216.3,93.748l2.967,1.809c1.69-7.979,3.4-17.685-1.729-24.738-2.879-3.963-7.364-2.641-11.5-2.057a133.014,133.014,0,0,0-14.887,2.988c-1.942.5-1.531,3.677.471,3.652a78.588,78.588,0,0,0,13.2-1.3c2.044-.375,1.443-3.572-.472-3.654a47.281,47.281,0,0,0-19.813,3.421c-1.7.689-1.685,3.879.472,3.652q15.033-1.579,29.879-4.6a1.905,1.905,0,0,0,.783-3.108c-3.572-3.292-9.244-2.972-13.71-2.891a65.89,65.89,0,0,0-16.3,2.4c-2.207.607-1.271,4.2.943,3.587" transform="translate(101.84 42.748)" fill="#fff"/>
        <path id="Path_15" data-name="Path 15" d="M194.29,67.636c-.126-.507-.231-1.018-.311-1.536-.009-.059-.027-.477-.033-.219s-.02-.2-.022-.22c-.025-.261-.044-.521-.058-.783-.025-.5-.03-.995-.013-1.492.009-.261.025-.523.045-.784.011-.13.027-.26.038-.39.033-.411-.049.316.013-.128h-3.422a14.24,14.24,0,0,1,.854,3.572l-.025-.191.033.306c.016.153.028.306.041.459.022.308.038.615.046.921.016.615,0,1.23-.049,1.843h3.549q0-3.473.011-6.946l-3.486.495c.144.5.267,1,.362,1.515a7.488,7.488,0,0,1,.124.77c-.02-.263-.019-.146,0,.048.013.13.024.26.035.388.036.493.05.988.039,1.483,0,.26-.016.52-.035.779-.009.13-.02.26-.031.39-.009.1-.067.569-.009.125q1.744.247,3.486.495-.275-3.927-.549-7.852a1.776,1.776,0,1,0-3.549,0q.028,3.145.055,6.292a1.776,1.776,0,1,0,3.549,0q-.028-3.148-.055-6.292h-3.549q.273,3.925.549,7.852a1.848,1.848,0,0,0,1.537,1.825,1.75,1.75,0,0,0,1.947-1.332,18.209,18.209,0,0,0-.485-7.474,1.779,1.779,0,0,0-1.945-1.332,1.827,1.827,0,0,0-1.539,1.825q0,3.473-.011,6.946a1.839,1.839,0,0,0,1.774,1.86,1.864,1.864,0,0,0,1.774-1.86,19.983,19.983,0,0,0-1.026-7.9,1.838,1.838,0,0,0-1.71-1.365,1.8,1.8,0,0,0-1.712,1.365,19.851,19.851,0,0,0,.34,7.53,1.784,1.784,0,0,0,2.182,1.3,1.908,1.908,0,0,0,1.239-2.287" transform="translate(108.27 37.91)" fill="#fff"/>
        <path id="Path_16" data-name="Path 16" d="M179.2,72.416a10.68,10.68,0,0,1-1.167-1.123,4.2,4.2,0,0,1-.555-.679c.224.409.047.058-.014-.033q-.125-.183-.24-.37a10.782,10.782,0,0,1-.762-1.457c-.19-.439.088.271-.033-.086-.041-.12-.086-.238-.127-.36-.093-.281-.173-.567-.245-.857q-1.483.905-2.965,1.809c.193.224.383.451.566.681.086.107.169.215.253.324.042.054.083.109.124.163-.129-.174-.154-.209-.075-.1.326.469.648.939.943,1.429q.424.708.792,1.447.184.37.353.748c.066.146.13.294.193.442.027.064.053.128.078.192-.093-.232-.1-.252-.025-.059q1.711-.5,3.422-.988-1.466-3.71-2.934-7.42l-3.243,1.434q1.9,2.657,3.8,5.315a1.954,1.954,0,0,0,1.061.855,1.742,1.742,0,0,0,1.366-.187,1.941,1.941,0,0,0,.637-2.544,45.687,45.687,0,0,1-3.008-5.95l-3.064,1.878c.227.418.444.844.645,1.278.1.217.2.436.29.656.141.324-.071-.192.011.021.042.112.086.222.129.335a21.485,21.485,0,0,1,.819,2.758,1.781,1.781,0,0,0,2.182,1.3,1.912,1.912,0,0,0,1.239-2.287,23.25,23.25,0,0,0-2.251-5.938,1.749,1.749,0,0,0-2.427-.666,1.969,1.969,0,0,0-.637,2.544,45.781,45.781,0,0,0,3.008,5.948l3.064-1.876-3.8-5.317a1.763,1.763,0,0,0-2.215-.761,1.862,1.862,0,0,0-1.028,2.2q1.466,3.708,2.934,7.418a2.047,2.047,0,0,0,.814,1.112,1.74,1.74,0,0,0,1.368.187,1.893,1.893,0,0,0,1.239-2.287,23.418,23.418,0,0,0-4.115-6.909,1.729,1.729,0,0,0-2.149-.291,1.96,1.96,0,0,0-.816,2.1,12.592,12.592,0,0,0,4.057,6.606,1.88,1.88,0,0,0,1.254.546,1.765,1.765,0,0,0,1.255-.546,1.944,1.944,0,0,0,0-2.63" transform="translate(98.178 41.325)" fill="#fff"/>
        <path id="Path_17" data-name="Path 17" d="M211.285,73.4l5.449-6.974q-1.516-.656-3.03-1.316a7.023,7.023,0,0,1-.019.793c0,.058-.009.113-.017.169-.016.146-.006.076.028-.214a1.625,1.625,0,0,0-.06.334,6.749,6.749,0,0,1-.2.765c-.033.105-.085.214-.111.319.127-.5.05-.12-.017.023a6.734,6.734,0,0,1-.339.645c-.057.1-.116.192-.179.284-.041.062-.083.123-.126.184.157-.21.195-.261.111-.153-.155.186-.306.372-.474.544-.077.079-.155.156-.237.23s-.5.4-.061.064q1.212,1.273,2.427,2.546c.253-.428.518-.845.8-1.25.047-.067.1-.135.144-.2l-.132.178a1.99,1.99,0,0,1,.224-.294q.247-.316.508-.62a17.489,17.489,0,0,1,2.142-2.1L215.334,65.1c-.386.587-.783,1.168-1.2,1.735-.05.071-.1.141-.154.212.148-.2.162-.22.042-.059-.08.1-.158.211-.238.314q-.318.417-.648.827-1.273,1.586-2.687,3.039l2.786,2.255q1.348-1.875,2.7-3.751a1.941,1.941,0,0,0,.179-1.432,1.889,1.889,0,0,0-.814-1.112,1.727,1.727,0,0,0-1.368-.187,2.1,2.1,0,0,0-1.061.855q-1.346,1.875-2.7,3.749a1.883,1.883,0,0,0,.457,2.4,1.716,1.716,0,0,0,2.33-.146,45.819,45.819,0,0,0,5.436-6.821,1.909,1.909,0,0,0-.458-2.4,1.744,1.744,0,0,0-2.328.146,19.133,19.133,0,0,0-4.245,5.039,1.947,1.947,0,0,0,.278,2.253,2.065,2.065,0,0,0,.783.479,1.688,1.688,0,0,0,1.367-.187,8.546,8.546,0,0,0,2.578-3.133,9.1,9.1,0,0,0,.882-4.067,1.878,1.878,0,0,0-1.09-1.7,1.69,1.69,0,0,0-1.939.385l-5.447,6.974a2.051,2.051,0,0,0-.521,1.314,1.941,1.941,0,0,0,.521,1.316,1.734,1.734,0,0,0,2.509,0" transform="translate(118.473 40.771)" fill="#fff"/>
        <path id="Path_18" data-name="Path 18" d="M368.014,15.93c.121,9.767-1.115,19.5-.995,29.27.017,1.442,1.516,3,2.979,2.378,15.463-6.6,31.665-13.534,48.7-12.171a41.808,41.808,0,0,1,21.078,7.346c5.792,4.144,10.132,10.125,13.251,16.646,3.627,7.583,5.6,15.955,6.749,24.314l2.895-3.034A116.744,116.744,0,0,0,409.9,76.426c-15.515,2.311-32.123,7.517-43.524,19.37-10.345,10.755-15.53,28.542-7.946,42.52,7.943,14.639,25.192,18.887,40.1,17.871,10.075-.686,20.137-2.9,29.925-5.415a244.5,244.5,0,0,0,29.7-9.707q-1.33-.567-2.658-1.133a35.052,35.052,0,0,1,3.146,20.469c-.469,3.106,4.065,4.443,4.539,1.312a40.987,40.987,0,0,0-3.621-24.271,2.317,2.317,0,0,0-2.658-1.135,238.539,238.539,0,0,1-48.6,13.748c-14.434,2.426-31.566,2.621-42.409-9.418-9.716-10.785-7.322-27.718,1.247-38.442,9.6-12.023,24.752-17.377,39.007-20.155a111.683,111.683,0,0,1,55.277,3.4c1.892.607,3.135-1.288,2.895-3.034-2.107-15.322-7.4-31.558-19.246-41.619-13.02-11.058-30.723-12.187-46.541-8.611-10.286,2.325-20.074,6.5-29.787,10.648l2.979,2.38c-.121-9.768,1.115-19.5.995-29.27-.039-3.172-4.746-3.18-4.707,0" transform="translate(201.85 8.731)" fill="#fff"/>
        <path id="Path_19" data-name="Path 19" d="M366.178,22.518a222.836,222.836,0,0,1,52.613-10.13c13.547-.923,27.459-.6,40.433,4.036a45.636,45.636,0,0,1,16.153,9.564A41.754,41.754,0,0,1,486.485,45.1c2.426,8.385,3.555,17.229,4.7,25.886q1.9,14.371,2.735,28.871a412.1,412.1,0,0,1-1.233,64.088c-.306,3.156,4.4,3.133,4.707,0a412.465,412.465,0,0,0,1.489-59.282q-.7-14.823-2.471-29.56c-1.12-9.309-2.286-18.754-4.476-27.864-1.9-7.926-5.035-15.468-10.264-21.617a46.076,46.076,0,0,0-15.852-11.763C453.236,8.053,439.1,6.63,425.487,7.1a225.2,225.2,0,0,0-60.561,10.66c-2.888.923-1.657,5.687,1.252,4.758" transform="translate(206.666 4.523)" fill="#fff"/>
        <path id="Path_20" data-name="Path 20" d="M423.266,107.2c12.97-.7,25.967-.617,38.937-1.322,3.014-.163,3.033-5.1,0-4.934-12.97.706-25.967.618-38.937,1.322-3.014.164-3.033,5.1,0,4.934" transform="translate(239.5 65.055)" fill="#fff"/>
        <path id="Path_21" data-name="Path 21" d="M374.146,86.652c7.233-11.485,20.075-17.738,32.972-18.285A57.137,57.137,0,0,1,429.045,72c6.25,2.276,12.827,5.447,16.638,11.38,1.269,1.975,4.344.115,3.064-1.878-3.172-4.94-7.863-8.275-12.986-10.688a65.044,65.044,0,0,0-17.89-5.524c-11.6-1.756-23.637-.026-33.761,6.409a41.963,41.963,0,0,0-13.028,13.072c-1.261,2,1.811,3.869,3.064,1.878" transform="translate(210.934 41.665)" fill="#fff"/>
        <path id="Path_22" data-name="Path 22" d="M371.813,82.834c7.4,7.857,17.929,10.507,28.058,11.717,11.613,1.388,23.849,1.066,34.47-4.593a35.157,35.157,0,0,0,12.821-11.577c1.31-1.968-1.765-3.828-3.061-1.876C436.462,88,422.59,91.681,409.9,91.532c-12.079-.141-26.652-1.845-35.578-11.327-1.608-1.707-4.117.923-2.509,2.63" transform="translate(211.224 48.773)" fill="#fff"/>
        <path id="Path_23" data-name="Path 23" d="M387.861,68.654c-2.7-1.1-4.481,1.893-5.369,4.062a25.475,25.475,0,0,0-2.228,8.611c-.229,5.7,2.829,10.745,5.75,15.276,1.272,1.972,4.347.113,3.064-1.878-2.2-3.409-4.641-7.083-5.187-11.263a14.979,14.979,0,0,1,.808-6.53c.325-1.006.7-2,1.117-2.968a7.02,7.02,0,0,1,.7-1.393c.215-.293.226-.4.4-.329,2.129.868,3.052-2.727.943-3.587" transform="translate(216.32 44.095)" fill="#fff"/>
        <path id="Path_24" data-name="Path 24" d="M405.833,70.62a14.873,14.873,0,0,1,2.626,19.545,1.924,1.924,0,0,0,.637,2.544,1.768,1.768,0,0,0,2.427-.668c5.072-7.216,3.591-18.56-3.182-24.051a1.77,1.77,0,0,0-2.509,0,1.936,1.936,0,0,0,0,2.63" transform="translate(230.579 43.483)" fill="#fff"/>
        <path id="Path_25" data-name="Path 25" d="M388.518,72.9a60.957,60.957,0,0,1,20.455-2.149c2.062.132,4.471.181,6.1,1.686q.391-1.554.783-3.108-14.367,2.935-28.936,4.473.235,1.825.471,3.652a44.775,44.775,0,0,1,18.871-3.287l-.471-3.652a73.066,73.066,0,0,1-12.261,1.168q.238,1.828.472,3.652c3.864-1,7.764-1.85,11.7-2.5q3.085-.511,6.188-.857a12.676,12.676,0,0,1,2.879-.229c1.12.143,1.7,1,2.273,1.927,3.789,6.141,2.123,14.243.714,20.892-.37,1.746,1.68,3.2,2.965,1.809,8.376-9.086,6.032-24.309-4.9-29.862-1.473-.748-3.484.87-2.429,2.546a32.62,32.62,0,0,1,5.176,18.058c-.049,2-.467,3.23-2.189,4.175a20.125,20.125,0,0,1-4.241,1.524,89.9,89.9,0,0,1-9.952,2.09c-5.129.858-12.306,2.3-15.629-3.157a17.744,17.744,0,0,1-2.066-7.864c-.14-1.945-.265-5.53,1.9-6.374l-2.245-1.794c.505,5.019.96,10.045,1.519,15.055.4,3.588,1.745,7.454,5.775,7.533a1.867,1.867,0,0,0,1.774-1.858c.384-3.238-1.122-5.986-2.441-8.785a25.42,25.42,0,0,1-2.422-10.179c-.05-1.689-2.549-2.731-3.306-.939a12.822,12.822,0,0,0,.5,10.842,21.311,21.311,0,0,0,3.255,4.656c1.1,1.243,2.49,3.136,4.067,3.7a2.41,2.41,0,0,0,3.161-1.615c.494-1.618-.5-3.281-1.09-4.71Q392.1,82.6,389.266,75.781c-.8-1.914-3.932-.546-3.243,1.432l6.651,19.14a1.771,1.771,0,0,0,2.607,1.112c5.02-3.657,11.261-3.772,17.068-4.947,2.482-.5,6.3-1.08,7.968-3.305,1.749-2.334.577-6.187-.232-8.706-.88-2.738-2.11-5.856-4.344-7.67-2.378-1.931-5.421-1.714-8.218-1.194A150.49,150.49,0,0,0,386.9,77.22a1.86,1.86,0,0,0,.943,3.587,232.6,232.6,0,0,1,26.5-3.822l-.471-3.654-21.334,7.918a1.86,1.86,0,0,0,.944,3.587l20.173-4.059c1.952-.393,1.523-3.787-.472-3.654a98.814,98.814,0,0,0-22.763,4.226q.471,1.793.943,3.587a62.342,62.342,0,0,1,23.194-3.815q-.238-1.828-.472-3.654-11.637,3.017-23.274,6.03c-2.243.58-1.272,4.011.944,3.587q11.522-2.213,23.047-4.422-.473-1.793-.944-3.587l-20.734,6.663a1.86,1.86,0,0,0,.944,3.587l19.685-4.3q-.473-1.793-.944-3.587a88.638,88.638,0,0,0-17.568,6.723c-1.931.98-.48,3.74,1.366,3.4a132.668,132.668,0,0,0,19.429-5.146,1.86,1.86,0,0,0-.943-3.587,111.554,111.554,0,0,0-16.464,4.567c-1.767.638-1.641,3.876.471,3.652a64.284,64.284,0,0,0,14.939-3.37q-.683-1.7-1.367-3.4a68.767,68.767,0,0,0-5.839,3.937,1.924,1.924,0,0,0,.424,3.4,15.85,15.85,0,0,0,6.053.722q-.767-.459-1.533-.921a.844.844,0,0,1-.38,1.255c-1.991,1.173-.2,4.386,1.79,3.212a4.679,4.679,0,0,0,1.654-6.343,1.732,1.732,0,0,0-1.531-.921,13.073,13.073,0,0,1-5.11-.59q.214,1.7.425,3.4a68.471,68.471,0,0,1,5.838-3.937c1.7-1.025.576-4.093-1.366-3.4a60.337,60.337,0,0,1-14,3.236q.238,1.828.472,3.654a111.6,111.6,0,0,1,16.464-4.567q-.471-1.793-.943-3.587a132.663,132.663,0,0,1-19.429,5.146q.685,1.7,1.368,3.4a84.1,84.1,0,0,1,16.721-6.348c2.228-.587,1.279-4.073-.944-3.587l-19.685,4.3q.473,1.793.944,3.587,10.366-3.333,20.734-6.663a1.86,1.86,0,0,0-.944-3.587q-11.522,2.21-23.047,4.422.473,1.793.944,3.587l23.273-6.03c1.978-.511,1.5-3.6-.471-3.652a65.163,65.163,0,0,0-24.137,3.948c-2.132.779-1.271,4.274.943,3.587a94.593,94.593,0,0,1,21.82-4.093l-.471-3.652q-10.089,2.03-20.174,4.059.473,1.793.944,3.587l21.332-7.918c1.76-.653,1.65-3.835-.472-3.652A241.214,241.214,0,0,0,386.9,77.22q.471,1.793.943,3.587a169.932,169.932,0,0,1,16.759-4.749c2.341-.533,5.4-1.653,7.794-.895,2.584.819,3.773,4.614,4.478,7.03.329,1.131,1.3,3.845.478,4.9-.527.678-2.491.993-3.238,1.2a62.813,62.813,0,0,1-7.01,1.381c-4.769.761-9.575,1.636-13.618,4.582l2.606,1.112-6.651-19.14q-1.621.718-3.243,1.432l3.375,8.107q.765,1.843,1.533,3.685c.323.776,1.729,3.085,1.436,3.858q.407-.557.814-1.112,1.257.276.22-.431l-.464-.457c-.463-.462-.921-.927-1.363-1.408a20.293,20.293,0,0,1-2.507-3.238c-1.457-2.412-2.289-5.5-1.134-8.237l-3.306-.939a29.153,29.153,0,0,0,1.868,9.661c1.163,3.019,3.4,5.9,2.993,9.3l1.774-1.86c-2.827-.058-2.52-6.7-2.716-8.652L387.694,75.72c-.11-1.089-1.059-2.255-2.245-1.793-4.92,1.916-4.862,8.02-4.212,12.6.81,5.711,3.6,10.911,9.267,12.39,5.689,1.482,12.206-.215,17.819-1.365,5.4-1.108,13.182-2.324,13.747-9.38.582-7.285-1.814-14.968-5.614-20.992q-1.212,1.273-2.427,2.544a15.382,15.382,0,0,1,4.183,24.021l2.967,1.809c1.69-7.979,3.4-17.685-1.729-24.738-2.879-3.963-7.364-2.641-11.5-2.057a133.015,133.015,0,0,0-14.887,2.988c-1.942.5-1.531,3.677.471,3.652a78.586,78.586,0,0,0,13.2-1.3c2.044-.375,1.443-3.572-.472-3.654a47.281,47.281,0,0,0-19.813,3.421c-1.7.689-1.687,3.879.472,3.652q15.033-1.579,29.879-4.6a1.906,1.906,0,0,0,.783-3.108c-3.572-3.292-9.244-2.972-13.711-2.891a65.89,65.89,0,0,0-16.3,2.4c-2.207.607-1.271,4.2.943,3.587" transform="translate(216.703 42.748)" fill="#fff"/>
        <path id="Path_26" data-name="Path 26" d="M396.2,67.636c-.126-.507-.231-1.018-.311-1.536-.009-.059-.027-.477-.033-.219s-.02-.2-.022-.22c-.025-.261-.044-.521-.058-.783-.025-.5-.03-.995-.013-1.492.009-.261.025-.523.045-.784.011-.13.027-.26.038-.39.033-.411-.049.316.013-.128h-3.42a14.308,14.308,0,0,1,.852,3.572c-.009-.064-.017-.127-.025-.191l.033.306c.016.153.028.306.041.459.022.308.038.615.045.921.016.615,0,1.23-.049,1.843h3.549q0-3.473.011-6.946l-3.486.495c.144.5.267,1,.362,1.515a7.467,7.467,0,0,1,.124.77c-.02-.263-.019-.146,0,.048.013.13.024.26.034.388.036.493.05.988.039,1.483,0,.26-.016.52-.035.779-.009.13-.02.26-.031.39-.009.1-.067.569-.009.125q1.744.247,3.486.495-.275-3.927-.549-7.852a1.776,1.776,0,1,0-3.549,0q.028,3.145.055,6.292a1.776,1.776,0,1,0,3.549,0q-.028-3.148-.055-6.292h-3.549q.273,3.925.549,7.852a1.848,1.848,0,0,0,1.538,1.825,1.75,1.75,0,0,0,1.947-1.332,18.208,18.208,0,0,0-.485-7.474,1.779,1.779,0,0,0-1.945-1.332,1.827,1.827,0,0,0-1.539,1.825q0,3.473-.011,6.946a1.839,1.839,0,0,0,1.774,1.86,1.864,1.864,0,0,0,1.774-1.86,19.982,19.982,0,0,0-1.026-7.9,1.838,1.838,0,0,0-1.71-1.365,1.8,1.8,0,0,0-1.71,1.365,19.818,19.818,0,0,0,.339,7.53,1.784,1.784,0,0,0,2.182,1.3,1.908,1.908,0,0,0,1.239-2.287" transform="translate(223.133 37.91)" fill="#fff"/>
        <path id="Path_27" data-name="Path 27" d="M381.113,72.416a10.835,10.835,0,0,1-1.169-1.123,4.283,4.283,0,0,1-.555-.679c.224.409.047.058-.014-.033-.082-.122-.163-.245-.238-.37a10.586,10.586,0,0,1-.762-1.457c-.19-.439.088.271-.035-.086-.041-.12-.086-.238-.127-.36-.093-.281-.171-.567-.245-.857q-1.48.905-2.965,1.809c.193.224.383.451.566.681.086.107.169.215.254.324q.064.081.122.163c-.127-.174-.154-.209-.074-.1.325.469.648.939.941,1.429q.424.708.792,1.447c.122.247.242.5.354.748.064.146.13.294.191.442l.08.192c-.094-.232-.1-.252-.027-.059l3.422-.988-2.934-7.42-3.241,1.434q1.9,2.657,3.8,5.315a1.942,1.942,0,0,0,1.061.855,1.744,1.744,0,0,0,1.367-.187,1.942,1.942,0,0,0,.637-2.544,45.71,45.71,0,0,1-3.009-5.95l-3.064,1.878c.229.418.447.844.645,1.278.1.217.2.436.29.656.141.324-.069-.192.013.021.041.112.086.222.127.335a21.253,21.253,0,0,1,.819,2.758,1.783,1.783,0,0,0,2.184,1.3,1.912,1.912,0,0,0,1.238-2.287,23.246,23.246,0,0,0-2.251-5.938,1.748,1.748,0,0,0-2.427-.666,1.97,1.97,0,0,0-.637,2.544,45.781,45.781,0,0,0,3.009,5.948l3.064-1.876q-1.9-2.659-3.8-5.317a1.764,1.764,0,0,0-2.217-.761,1.862,1.862,0,0,0-1.028,2.2q1.468,3.708,2.934,7.418a2.047,2.047,0,0,0,.814,1.112,1.744,1.744,0,0,0,1.37.187,1.892,1.892,0,0,0,1.238-2.287,23.419,23.419,0,0,0-4.115-6.909,1.727,1.727,0,0,0-2.148-.291,1.961,1.961,0,0,0-.817,2.1,12.593,12.593,0,0,0,4.057,6.606,1.883,1.883,0,0,0,1.254.546,1.766,1.766,0,0,0,1.257-.546,1.945,1.945,0,0,0,0-2.63" transform="translate(213.041 41.325)" fill="#fff"/>
        <path id="Path_28" data-name="Path 28" d="M413.194,73.4l5.449-6.974q-1.516-.656-3.03-1.316a7.026,7.026,0,0,1-.019.793c0,.058-.009.113-.017.169-.016.146-.006.076.028-.214a1.627,1.627,0,0,0-.06.334,6.724,6.724,0,0,1-.2.765c-.033.105-.085.214-.111.319.127-.5.049-.12-.017.023a6.723,6.723,0,0,1-.339.645c-.057.1-.116.192-.179.284-.041.062-.083.123-.125.184.157-.21.195-.261.111-.153-.155.186-.306.372-.474.544-.077.079-.155.156-.237.23s-.5.4-.063.064l2.429,2.546q.376-.641.8-1.25c.047-.067.1-.135.144-.2l-.132.178a2,2,0,0,1,.224-.294q.247-.316.508-.62a17.49,17.49,0,0,1,2.142-2.1L417.243,65.1c-.386.587-.783,1.168-1.2,1.735-.05.071-.1.141-.154.212.148-.2.162-.22.042-.059-.08.1-.158.211-.238.314q-.318.417-.648.827-1.273,1.586-2.688,3.039l2.786,2.255q1.348-1.875,2.7-3.751a1.941,1.941,0,0,0,.179-1.432,1.889,1.889,0,0,0-.814-1.112,1.727,1.727,0,0,0-1.368-.187,2.1,2.1,0,0,0-1.061.855q-1.346,1.875-2.7,3.749a1.883,1.883,0,0,0,.456,2.4,1.716,1.716,0,0,0,2.33-.146,45.823,45.823,0,0,0,5.436-6.821,1.909,1.909,0,0,0-.458-2.4,1.744,1.744,0,0,0-2.328.146,19.133,19.133,0,0,0-4.245,5.039,1.947,1.947,0,0,0,.278,2.253,2.065,2.065,0,0,0,.783.479,1.688,1.688,0,0,0,1.367-.187,8.546,8.546,0,0,0,2.578-3.133,9.1,9.1,0,0,0,.882-4.067,1.878,1.878,0,0,0-1.09-1.7,1.69,1.69,0,0,0-1.939.385l-5.447,6.974a2.051,2.051,0,0,0-.521,1.314,1.941,1.941,0,0,0,.521,1.316,1.735,1.735,0,0,0,2.509,0" transform="translate(233.336 40.771)" fill="#fff"/>
      </g>
    </g>
    <text id="hello_i_am" data-name="hello!
i am" transform="translate(287 262.951)" fill="#fff" font-size="25" font-family="Work Sans" font-weight="500"><tspan x="0" y="23">hello!</tspan><tspan x="0" y="52">i am</tspan></text>
  </g>
</svg>
