<svg xmlns="http://www.w3.org/2000/svg" xmlns:xlink="http://www.w3.org/1999/xlink" width="727" height="178.25" viewBox="0 0 727 178.25">
  <defs>
    <clipPath id="clip-path">
      <rect id="Rectangle_81" data-name="Rectangle 81" width="706" height="178.25" fill="none"/>
    </clipPath>
  </defs>
  <g id="Group_123" data-name="Group 123" transform="translate(-287 -262.79)">
    <g id="Group_129" data-name="Group 129" transform="translate(308 262.79)">
      <g id="Group_128" data-name="Group 128" clip-path="url(#clip-path)">
        <path id="Path_87" data-name="Path 87" d="M155.784,167.222c.574,1.174.056-.6.116-.143-.094-.73-.18-1.462-.268-2.192q-.322-2.681-.639-5.364c-.245-2.051.067-7.122-2.419-7.82a2.409,2.409,0,0,0-2.978,2.378l0,.031H154.3q-3.238-39.32-3.765-78.811-.254-19.527.163-39.055.207-9.761.584-19.518c.126-3.25.337-6.5.419-9.753.058-2.263-.3-4.769-2.316-6.053-2.476-1.575-6.555-.692-9.28-.5C136.921.633,133.752,1,130.6,1.48a111.794,111.794,0,0,0-20.245,5.073,2.515,2.515,0,0,0-1.727,2.378c.639,25.56,1.112,51.126,1.751,76.684l2.353-2.467a139.9,139.9,0,0,0-86.6,26.636c-8.163,6-16.828,13.036-22.269,21.939-2.818,4.611-4.5,10.025-3.629,15.521A20.69,20.69,0,0,0,7.415,159.5c8.765,7.479,21.131,7.658,31.9,7.885a191.515,191.515,0,0,0,35.865-2.672q8.731-1.473,17.313-3.759,4.283-1.145,8.517-2.488,2.116-.673,4.216-1.4c1.426-.49,3.191-1.473,4.718-1.449,2.717.044,3.033,4.963,3.53,7.017.762,3.152,1.4,6.374,2.311,9.484.8,2.75,2.316,5.073,5.1,5.835,2.331.638,4.89.109,7.222-.3,8.892-1.554,17.609-4.254,26.277-6.81,2.91-.857,1.674-5.619-1.252-4.756-7.5,2.209-15,4.422-22.63,6.083-2.755.6-8.7,2.784-10.014-.819-1.851-5.063-2.062-10.737-4.04-15.761a7.427,7.427,0,0,0-3.983-4.48c-2.628-1.026-5.282.082-7.79.955q-8.392,2.923-17.013,5.044a185.624,185.624,0,0,1-33.615,5.068q-8.463.488-16.942.21c-5.45-.181-11.025-.385-16.354-1.694-9.283-2.279-18.7-10.028-15.328-21.13,1.506-4.953,4.917-9.12,8.376-12.723A110.769,110.769,0,0,1,24.506,117.1a134.7,134.7,0,0,1,88.222-29.022,2.433,2.433,0,0,0,2.353-2.467c-.639-25.559-1.112-51.124-1.751-76.684l-1.727,2.38A107.449,107.449,0,0,1,145.31,5.118c1.039-.018,1.575-.386,1.7.747a30.289,30.289,0,0,1-.162,4.361q-.217,4.877-.391,9.755-.325,9.147-.505,18.3-.725,37.016.963,74.024.955,20.93,2.681,41.808a2.353,2.353,0,1,0,4.707,0l0-.031-2.979,2.38,0,0q-.821-.861-1.644-1.723a11.682,11.682,0,0,1,.271,2.021q.3,2.5.6,5,.282,2.385.573,4.771a10.116,10.116,0,0,0,.6,3.182c1.382,2.827,5.444.334,4.063-2.49" transform="translate(0 0)" fill="#fff"/>
        <path id="Path_88" data-name="Path 88" d="M162.977,142.9q-3.048-32.073-6.1-64.143-1.513-15.933-3.028-31.867c-.246-2.587-.461-5.179-.737-7.762-.195-1.814-.491-3.72-1.809-5.047-1.5-1.515-3.586-1.473-5.486-1.02-2.2.525-4.377,1.214-6.553,1.84-9.616,2.768-19.183,5.723-28.828,8.38a2.464,2.464,0,0,0-1.727,2.378q3.622,28.705,7.273,57.409,2.405,18.991,4.812,37.983.727,5.725,1.451,11.449c.195,1.529,1.352,2.881,2.979,2.38,11.9-3.672,23.919-6.756,36.023-9.6,2.954-.694,1.7-5.452-1.252-4.756-12.1,2.845-24.12,5.928-36.023,9.6l2.979,2.378q-1.852-14.625-3.706-29.252-2.156-17-4.311-34.01-2.765-21.789-5.519-43.579l-1.729,2.38c8-2.205,15.946-4.614,23.911-6.951q2.777-.814,5.562-1.615,1.574-.451,3.153-.9a14.321,14.321,0,0,1,3.073-.84c.839-.02.822.122.973,1.008.179,1.064.217,2.171.318,3.243q.369,3.88.737,7.762,2.836,29.825,5.67,59.649,1.591,16.752,3.183,33.5c.3,3.129,5.008,3.162,4.707,0" transform="translate(61.837 21.13)" fill="#fff"/>
        <path id="Path_89" data-name="Path 89" d="M113.781,15.841c-3.775,3.185-4.835,9.24-3.423,13.931a10.907,10.907,0,0,0,4.327,6.111,14.183,14.183,0,0,0,9.089,1.927,22.766,22.766,0,0,0,9.164-3.139c2.733-1.625,5.546-3.855,6.977-6.872,2.733-5.762-.2-12.357-5.154-15.563-6.539-4.233-14.864-1.247-20.5,3.22a2.618,2.618,0,0,0-.844,3.376,2.31,2.31,0,0,0,3.219.885c3.856-3.054,9.01-5.711,13.932-4.118,3.4,1.1,6.456,5.134,5.613,8.7-.527,2.232-2.306,3.866-4.06,5.1a20.13,20.13,0,0,1-6.638,3.138,11.955,11.955,0,0,1-6.892-.173,6.79,6.79,0,0,1-1.312-.61,3.411,3.411,0,0,1-.72-.525,5.481,5.481,0,0,1-1.382-2,10.153,10.153,0,0,1-.617-5.042,7.193,7.193,0,0,1,2.551-4.863,2.565,2.565,0,0,0,0-3.488,2.327,2.327,0,0,0-3.326,0" transform="translate(62.44 6.57)" fill="#fff"/>
        <path id="Path_90" data-name="Path 90" d="M259.008,158.464c.877-.048,1.754-.069,2.631-.11a40.74,40.74,0,0,0-3.983-21.038A2.316,2.316,0,0,0,255,136.181a238.551,238.551,0,0,1-48.6,13.748c-14.435,2.426-31.568,2.621-42.41-9.418-9.716-10.785-7.322-27.718,1.247-38.443,9.606-12.021,24.754-17.376,39.009-20.153a111.677,111.677,0,0,1,55.275,3.4c1.892.605,3.135-1.288,2.895-3.034-2.107-15.322-7.4-31.558-19.246-41.621-13.02-11.056-30.723-12.186-46.541-8.609-9.231,2.085-18.059,5.665-26.795,9.374.143-7.923.943-15.833.976-23.76-.573.178-1.15.339-1.721.521-2.664.852-3.911-3.065-1.884-4.44a2.223,2.223,0,0,0-1.1,2.062c.122,9.767-1.115,19.5-.995,29.27.019,1.442,1.516,3,2.979,2.378,15.463-6.6,31.666-13.534,48.7-12.171a41.8,41.8,0,0,1,21.078,7.346c5.792,4.144,10.132,10.125,13.251,16.646a77.226,77.226,0,0,1,6.106,20.214A116.819,116.819,0,0,0,207.989,76.3c-15.515,2.311-32.121,7.515-43.524,19.371-10.344,10.755-15.53,28.542-7.946,42.52,7.943,14.639,25.192,18.887,40.1,17.871,10.075-.686,20.137-2.9,29.925-5.415a244.232,244.232,0,0,0,27.854-9,35.019,35.019,0,0,1,2.338,18.632,2.749,2.749,0,0,0,0,.827,2.447,2.447,0,0,1,2.264-2.638" transform="translate(86.988 8.857)" fill="#fff"/>
        <path id="Path_91" data-name="Path 91" d="M296.968,104.662q-.7-14.823-2.471-29.56c-1.12-9.309-2.284-18.754-4.476-27.864-1.9-7.926-5.033-15.468-10.264-21.615A46.059,46.059,0,0,0,263.9,13.858c-12.581-5.805-26.712-7.229-40.33-6.757a225.246,225.246,0,0,0-60.559,10.66,2.424,2.424,0,0,0-.634.317c-2.027,1.375-.78,5.29,1.884,4.44.571-.183,1.148-.344,1.721-.523a222.676,222.676,0,0,1,50.891-9.607c13.547-.923,27.459-.6,40.433,4.036a45.637,45.637,0,0,1,16.153,9.564A41.753,41.753,0,0,1,284.573,45.1c2.426,8.385,3.555,17.229,4.7,25.886q1.9,14.371,2.735,28.871a411.748,411.748,0,0,1-1.026,61.71c.715-.035,1.431-.049,2.146-.089,2.049-.112,2.7,2.1,1.98,3.6a2.641,2.641,0,0,0,.373-1.135,412.488,412.488,0,0,0,1.489-59.282" transform="translate(91.805 4.522)" fill="#fff"/>
        <path id="Path_92" data-name="Path 92" d="M260.293,100.945c-.715.039-1.431.054-2.146.089-11.379.546-22.777.594-34.158,1.123-.877.041-1.756.063-2.633.11a2.447,2.447,0,0,0-2.264,2.638,2.132,2.132,0,0,0,2.264,2.3c12.97-.705,25.967-.618,38.937-1.322a2.259,2.259,0,0,0,1.98-1.332c.719-1.5.069-3.713-1.98-3.6" transform="translate(124.638 65.056)" fill="#fff"/>
        <path id="Path_93" data-name="Path 93" d="M253.694,16.789q5.234,52.376,10.912,104.7,1.612,14.862,3.262,29.719c.342,3.082,4.931,3.217,4.707,0a.7.7,0,0,1-.006-.128l-4.385,1.245c-.469-1.074-.108.178-.053.553.1.689.2,1.378.295,2.067a11.973,11.973,0,0,0,.621,3.128c1.021,2.338,4.341,1.028,4.385-1.245a.717.717,0,0,0,0-.13c-.22-3.148-4.928-3.172-4.707,0a.717.717,0,0,1,0,.13l4.387-1.245c.468,1.072.108-.178.053-.553-.1-.689-.2-1.378-.3-2.067a11.975,11.975,0,0,0-.621-3.128c-1.02-2.338-4.34-1.028-4.385,1.245a.706.706,0,0,0,.006.128h4.707q-5.8-52.307-11.164-104.67-1.523-14.874-3.009-29.751c-.312-3.126-5.022-3.159-4.707,0" transform="translate(144.314 9.301)" fill="#fff"/>
        <path id="Path_94" data-name="Path 94" d="M256.624,22.056c4.429-1.669,9.445-1.189,14.068-1.556a25.411,25.411,0,0,0,6.864-1.266c2.843-1.052,5.962-2.559,9.027-1.668,5.06,1.47,7.06,8.944,8.709,13.421a191.144,191.144,0,0,1,6.247,20.487,2.341,2.341,0,0,0,4.3.589c6.958-12.2,14.94-24.751,27.051-31.883,11.291-6.652,25.1-7.515,35.67,1.112,9.818,8.01,15.022,20.75,17.749,33.128,3.473,15.776,3.712,32.235,4.176,48.348q.817,28.4.028,56.821c-.086,3.176,4.62,3.172,4.707,0q.734-26.781.06-53.574c-.439-17.113-.648-34.607-4.112-51.4-2.755-13.357-8.207-27.068-18.411-36.065a33.219,33.219,0,0,0-17.076-8.254,37.112,37.112,0,0,0-20.519,3.236c-15.286,6.839-25.14,21.587-33.386,36.046l4.3.589a190.977,190.977,0,0,0-6.928-22.308c-2.115-5.557-4.465-12.194-10.191-14.631-6.037-2.57-11.527,1.71-17.454,2.273-5.287.5-11.059-.11-16.133,1.8-2.829,1.067-1.608,5.836,1.252,4.758" transform="translate(144.364 6.414)" fill="#fff"/>
        <path id="Path_95" data-name="Path 95" d="M265.586,138.225c10.954-.781,21.913-1.628,32.816-3a2.482,2.482,0,0,0,2.353-2.467,254.082,254.082,0,0,1,4.12-41.731c1.92-10.119,4.876-20.823,11.283-28.9,5.523-6.966,15.643-13.468,24.374-8.788,4.917,2.633,5.874,8.356,6.431,13.613.755,7.1,1.365,14.223,1.9,21.347,1.21,16.269,1.96,32.572,2.708,48.873a2.441,2.441,0,0,0,2.353,2.467c10.817-.834,22.063-3.475,32.887-1.5,2.962.541,4.234-4.212,1.25-4.756-11.331-2.069-22.815.449-34.137,1.322l2.353,2.467c-.717-15.628-1.436-31.257-2.56-46.858-.562-7.8-1.217-15.59-2.043-23.362-.634-5.981-1.65-12.3-6.425-16.261-8.613-7.149-20.91-3.1-28.434,3.684-8.262,7.453-12.622,18.667-15.224,29.494-3.809,15.846-5.181,32.592-5.538,48.891l2.353-2.467c-10.9,1.373-21.862,2.22-32.816,3-3.006.214-3.028,5.149,0,4.933" transform="translate(149.801 30.242)" fill="#fff"/>
        <path id="Path_96" data-name="Path 96" d="M368.014,15.93c.121,9.767-1.115,19.5-.995,29.27.017,1.442,1.516,3,2.979,2.378,15.463-6.6,31.665-13.534,48.7-12.171a41.809,41.809,0,0,1,21.078,7.346c5.792,4.144,10.132,10.125,13.251,16.646,3.627,7.583,5.6,15.955,6.749,24.314l2.895-3.034A116.744,116.744,0,0,0,409.9,76.426c-15.515,2.311-32.123,7.517-43.524,19.37-10.345,10.755-15.53,28.542-7.946,42.52,7.943,14.639,25.192,18.887,40.1,17.871,10.075-.686,20.137-2.9,29.925-5.415a244.509,244.509,0,0,0,29.7-9.707q-1.33-.567-2.658-1.133a35.052,35.052,0,0,1,3.146,20.469c-.469,3.106,4.065,4.443,4.539,1.312a40.987,40.987,0,0,0-3.621-24.271,2.317,2.317,0,0,0-2.658-1.135,238.54,238.54,0,0,1-48.6,13.748c-14.434,2.426-31.566,2.621-42.409-9.418-9.716-10.785-7.322-27.718,1.247-38.442,9.6-12.023,24.752-17.377,39.007-20.155a111.682,111.682,0,0,1,55.276,3.4c1.892.607,3.135-1.288,2.895-3.034-2.107-15.322-7.4-31.558-19.246-41.619-13.02-11.058-30.723-12.187-46.541-8.611-10.286,2.325-20.074,6.5-29.787,10.648l2.979,2.38c-.121-9.768,1.115-19.5.995-29.27-.039-3.172-4.746-3.18-4.707,0" transform="translate(201.85 8.731)" fill="#fff"/>
        <path id="Path_97" data-name="Path 97" d="M366.178,22.518a222.838,222.838,0,0,1,52.613-10.13c13.547-.923,27.459-.6,40.433,4.036a45.636,45.636,0,0,1,16.153,9.564A41.753,41.753,0,0,1,486.485,45.1c2.426,8.385,3.555,17.229,4.7,25.886q1.9,14.371,2.735,28.871a412.117,412.117,0,0,1-1.233,64.088c-.306,3.156,4.4,3.133,4.707,0a412.47,412.47,0,0,0,1.489-59.282q-.7-14.823-2.471-29.56c-1.12-9.309-2.286-18.754-4.476-27.864-1.9-7.926-5.035-15.468-10.264-21.617a46.075,46.075,0,0,0-15.852-11.763C453.236,8.053,439.1,6.63,425.487,7.1a225.2,225.2,0,0,0-60.561,10.66c-2.888.923-1.657,5.687,1.252,4.758" transform="translate(206.666 4.523)" fill="#fff"/>
        <path id="Path_98" data-name="Path 98" d="M423.266,107.2c12.97-.7,25.967-.617,38.937-1.322,3.014-.163,3.033-5.1,0-4.933-12.97.705-25.967.618-38.937,1.322-3.014.164-3.033,5.1,0,4.933" transform="translate(239.5 65.055)" fill="#fff"/>
        <path id="Path_99" data-name="Path 99" d="M171.853,78.622c6.321-.428,12.011,3,17.973,4.649,6.489,1.789,13.292,1.97,19.963,2,11.533.053,25.19-1.694,31.224-13.592,1.843-3.636-2.537-7.282-5.446-4.406-16.66,16.47-41.77,14.794-61.428,5.782Q172.8,76.38,171.467,79.7c12.405,5.1,25.232,10.286,38.748,10.431,11.536.123,23.419-3.587,31.651-12.365,3.132-3.34-1.77-8.484-4.9-5.141C229.688,80.382,219.129,83.2,209,82.834c-12.416-.441-24.269-5.453-35.687-10.143-3.626-1.488-6.272,4.994-2.672,6.644,11.88,5.445,24.875,8.864,37.918,7.576a52.284,52.284,0,0,0,31.914-14.495l-5.447-4.406c-5.3,10.449-18.452,10.124-28.166,9.962-6.094-.1-12.084-.569-17.91-2.56-5.6-1.916-11.064-4.468-17.095-4.06-4.432.3-4.464,7.573,0,7.27" transform="translate(95.867 42.69)" fill="#fff"/>
        <path id="Path_100" data-name="Path 100" d="M191.584,80.2V92.878a3.472,3.472,0,1,0,6.936,0V80.2a3.472,3.472,0,1,0-6.936,0" transform="translate(108.989 49.341)" fill="#fff"/>
        <path id="Path_101" data-name="Path 101" d="M180.6,73.987,172.8,84.846a3.8,3.8,0,0,0-.35,2.8,3.684,3.684,0,0,0,1.594,2.174,3.36,3.36,0,0,0,2.672.367,4.077,4.077,0,0,0,2.073-1.672q3.9-5.427,7.793-10.857a3.8,3.8,0,0,0,.35-2.8,3.69,3.69,0,0,0-1.594-2.172,3.36,3.36,0,0,0-2.672-.367,4.082,4.082,0,0,0-2.073,1.671" transform="translate(98.041 46.518)" fill="#fff"/>
        <path id="Path_102" data-name="Path 102" d="M209.754,78.3q4.238,5.506,8.478,11.01a3.392,3.392,0,0,0,2.452,1.064,3.451,3.451,0,0,0,2.452-1.064,3.746,3.746,0,0,0,1.015-2.57,4.284,4.284,0,0,0-1.015-2.57q-4.238-5.506-8.478-11.01a3.392,3.392,0,0,0-2.452-1.064,3.445,3.445,0,0,0-2.452,1.064,3.74,3.74,0,0,0-1.015,2.57,4.283,4.283,0,0,0,1.015,2.57" transform="translate(118.747 46.462)" fill="#fff"/>
        <path id="Path_103" data-name="Path 103" d="M374.941,78.622c6.321-.428,12.011,3,17.973,4.649,6.489,1.789,13.292,1.97,19.962,2,11.533.053,25.19-1.694,31.224-13.592,1.843-3.636-2.537-7.282-5.446-4.406-16.66,16.47-41.77,14.794-61.428,5.782L374.555,79.7c12.405,5.1,25.232,10.286,38.748,10.431,11.536.123,23.419-3.587,31.651-12.365,3.132-3.34-1.77-8.484-4.9-5.141-7.273,7.755-17.832,10.569-27.964,10.207-12.416-.441-24.269-5.453-35.687-10.143-3.626-1.488-6.272,4.994-2.672,6.644,11.88,5.445,24.876,8.864,37.918,7.576a52.284,52.284,0,0,0,31.914-14.495l-5.447-4.406c-5.3,10.449-18.452,10.124-28.166,9.962-6.094-.1-12.084-.569-17.91-2.56-5.6-1.916-11.064-4.468-17.095-4.06-4.432.3-4.464,7.573,0,7.27" transform="translate(211.401 42.69)" fill="#fff"/>
        <path id="Path_104" data-name="Path 104" d="M394.672,80.2V92.878a3.472,3.472,0,1,0,6.936,0V80.2a3.472,3.472,0,1,0-6.936,0" transform="translate(224.523 49.341)" fill="#fff"/>
        <path id="Path_105" data-name="Path 105" d="M383.686,73.987l-7.793,10.859a3.8,3.8,0,0,0-.35,2.8,3.684,3.684,0,0,0,1.594,2.174,3.36,3.36,0,0,0,2.672.367,4.077,4.077,0,0,0,2.072-1.672q3.9-5.427,7.793-10.857a3.8,3.8,0,0,0,.35-2.8,3.69,3.69,0,0,0-1.594-2.172,3.36,3.36,0,0,0-2.672-.367,4.082,4.082,0,0,0-2.072,1.671" transform="translate(213.575 46.518)" fill="#fff"/>
        <path id="Path_106" data-name="Path 106" d="M412.842,78.3q4.238,5.506,8.478,11.01a3.392,3.392,0,0,0,2.452,1.064,3.451,3.451,0,0,0,2.452-1.064,3.746,3.746,0,0,0,1.015-2.57,4.284,4.284,0,0,0-1.015-2.57q-4.238-5.506-8.478-11.01a3.392,3.392,0,0,0-2.452-1.064,3.445,3.445,0,0,0-2.452,1.064,3.74,3.74,0,0,0-1.015,2.57,4.283,4.283,0,0,0,1.015,2.57" transform="translate(234.281 46.462)" fill="#fff"/>
      </g>
    </g>
    <text id="hello_i_am" data-name="hello!
i am" transform="translate(287 262.951)" fill="#fff" font-size="25" font-family="Work Sans" font-weight="500"><tspan x="0" y="23">hello!</tspan><tspan x="0" y="52">i am</tspan></text>
  </g>
</svg>
