<svg id="Layer_1" data-name="Layer 1" xmlns="http://www.w3.org/2000/svg" viewBox="0 0 1000 1000"><defs><style>.cls-1{fill:none;stroke:#fff;stroke-miterlimit:10;stroke-width:3px;}.cls-2{fill:#fff;}</style></defs><rect width="1000" height="1000" rx="150"/><rect class="cls-1" width="1000" height="1000"/><path class="cls-2" d="M200,277.49c.71-3,1.42-6,2.14-9,8.82-37,41.2-62.43,79-62.08,36.8.34,69.51,26.45,76.93,63.12,10.82,53.53-33.22,103.25-88.34,96.06-35.63-4.66-62.58-31.39-68.67-66.83a11.83,11.83,0,0,0-1.08-2.56Zm139.58,8.93c.11-33-26.63-60.19-59-60-34,.23-60.31,26.09-60.64,59.61-.34,34.31,26.82,60.24,63,60.23C308.8,346.29,340,322.51,339.58,286.42Z"/><path class="cls-2" d="M538.24,419c8-6.65,14.84-13.09,22.44-18.44,23.65-16.66,50.3-24.13,79.07-24.51,21.67-.29,43.34-.08,64.09,7.27,49.09,17.4,79.46,51.85,91.23,102.35a156.44,156.44,0,0,1,3.6,34.76c.3,83.81.17,167.61.15,251.42,0,14.84-8.69,23.51-23.63,23.53q-45.9.06-91.8,0c-15.8,0-24.24-8.35-24.25-24.08q0-102.61-.09-205.22a150.73,150.73,0,0,0-1.83-22.65c-3-19.31-15.94-30.37-33.11-36.62-39.23-14.27-73.61,13.27-75.48,51.68-.39,8.17-.21,16.36-.22,24.55q0,94.73,0,189.44c0,15.29-7.55,22.86-23,22.89q-52,.07-104.07,0c-15.16,0-22.58-7.55-22.58-22.59q0-181.54,0-363.09c0-15.88,7.65-23.5,23.66-23.5,30.6,0,61.21.5,91.79-.25,13.38-.32,25.69,9.77,24.13,24.27C538,412.85,538.24,415.54,538.24,419ZM778.91,774.94v-6.81q0-123.39,0-246.77a182.08,182.08,0,0,0-1.12-19.25,118.34,118.34,0,0,0-88.22-102.18c-19.32-5-39-4.54-58.67-3.21-29.87,2-55.09,14.22-75.76,35.82-10.63,11.11-21.19,22.31-31.81,33.43a51.75,51.75,0,0,1-4.25,3.42V406.55H420.17V775.09H529.42v-7.72c0-67.25.12-134.5-.06-201.75-.07-21.92,5.74-41.46,20.51-58C583.37,470,648.31,477.16,670.94,521c7,13.57,8.13,28.33,8.19,43.21q.47,101.76.82,203.5c0,2.45.21,4.9.32,7.22Z"/><path class="cls-2" d="M349.71,590.91q0,85.64,0,171.26c0,20.45-12.59,33.14-33.13,33.21q-36.82.12-73.65,0c-20.12-.09-32.86-12.72-32.87-32.93q-.12-171.85,0-343.71c0-21.13,11.64-32.52,32.56-32.54q37.11,0,74.23,0c20.1,0,32.84,12.78,32.86,32.87Q349.75,505,349.71,590.91Zm-19.92.18q0-85.62,0-171.25c0-10-3.72-13.71-13.78-13.72q-35.94,0-71.89,0c-11.33,0-14.09,2.72-14.09,14.14q0,170.37,0,340.74c0,10.92,3.47,14.42,14.27,14.43q35.66,0,71.3,0c11.07,0,14.19-3.18,14.19-14.25Q329.8,676.12,329.79,591.09Z"/><path class="cls-2" d="M339.58,286.42c.46,36.09-30.78,59.87-56.57,59.87-36.22,0-63.38-25.92-63-60.23.33-33.52,26.64-59.38,60.64-59.61C313,226.23,339.69,253.42,339.58,286.42Z"/><path class="cls-2" d="M778.91,774.94H680.27c-.11-2.32-.31-4.77-.32-7.22q-.42-101.75-.82-203.5c-.06-14.88-1.19-29.64-8.19-43.21-22.63-43.85-87.57-51-121.07-13.42-14.77,16.57-20.58,36.11-20.51,58,.18,67.25.06,134.5.06,201.75v7.72H420.17V406.55H519v62.84a51.75,51.75,0,0,0,4.25-3.42c10.62-11.12,21.18-22.32,31.81-33.43,20.67-21.6,45.89-33.8,75.76-35.82,19.65-1.33,39.35-1.8,58.67,3.21a118.34,118.34,0,0,1,88.22,102.18,182.08,182.08,0,0,1,1.12,19.25q.1,123.39,0,246.77Z"/><path class="cls-2" d="M329.79,591.09q0,85,0,170.08c0,11.07-3.12,14.24-14.19,14.25q-35.65,0-71.3,0c-10.8,0-14.27-3.51-14.27-14.43q0-170.37,0-340.74c0-11.42,2.76-14.14,14.09-14.14q36,0,71.89,0c10.06,0,13.77,3.69,13.78,13.72Q329.8,505.48,329.79,591.09Z"/></svg>