<svg id="Layer_1" data-name="Layer 1" xmlns="http://www.w3.org/2000/svg" viewBox="0 0 277.76 167.8"><defs><style>.cls-1{fill:#fff;}</style></defs><path class="cls-1" d="M263.81,74.63c-7-.54-13.82,1.77-20.36,4.09a90.54,90.54,0,0,1-9.77,3c-1.6.38-3.21.69-4.83,1l-1.4.2c1.13-.15-.42,0-.53.06-.93.11-1.87.21-2.81.29a188.34,188.34,0,0,1-21.12.49c-1.55,0-3.1-.11-4.65-.22-.93-.07-1.85-.15-2.78-.26l-.92-.11c1.13.14-.77-.12-1-.15a48.42,48.42,0,0,1-9.09-2.44c-1.2-.45,1,.46-.2-.08-.46-.22-.92-.42-1.37-.65-.68-.34-1.35-.7-2-1.08s-1.3-.79-1.92-1.21l-.92-.66c-.92-.65.61.54-.17-.14a31.64,31.64,0,0,1-3.45-3.4c-.22-.26-1-.89-.14-.16a4.15,4.15,0,0,1-.64-.91A24.39,24.39,0,0,1,172.46,70l-7.88,6.08a74.15,74.15,0,0,0,35,18.27c14,3.11,28.47,2.52,42.38-.67a133.27,133.27,0,0,0,23.63-8c2.27-1,2.92-4.2,2.05-6.27s-3.58-3.82-5.92-2.9c-13.65,5.35-27.46,10.76-42,13.08-.46.08-.92.14-1.39.21-1,.15-.26,0-.05,0-.93.12-1.86.23-2.79.32-1.64.16-3.29.28-5,.35a74.89,74.89,0,0,1-9.11-.2q-1.07-.09-2.13-.21c-.38,0-.77-.08-1.16-.14,1.35.21,0,0-.2,0-1.53-.24-3.06-.52-4.57-.86a59.35,59.35,0,0,1-8.46-2.57,9.9,9.9,0,0,1-1.07-.42c1.19.61-.32-.15-.56-.25-.69-.32-1.38-.65-2.06-1-1.47-.74-2.9-1.56-4.29-2.44-.75-.48-1.48-1-2.2-1.5-.3-.21-.64-.43-.92-.67.91.8,0,0-.18-.16a46.55,46.55,0,0,1-3.94-3.62,5,5,0,0,0-7.09,7.09c9.44,9.71,22.3,14.76,35.54,16.46,14.14,1.81,28.46-.79,42-5,8.24-2.54,16.28-5.68,24.3-8.83L260.5,77l-1.27.55a3.38,3.38,0,0,1-.52.22l-2.15.87q-2.49,1-5,1.85-4.85,1.68-9.8,3t-10.22,2.08l-.91.13c-1.52.23,1-.11-.51.07l-2.3.26c-1.84.18-3.68.31-5.53.39a87.44,87.44,0,0,1-10-.16c-1.37-.1-2.73-.25-4.09-.41s1.07.18-.31,0l-1.22-.19c-.81-.14-1.62-.28-2.43-.44a78.09,78.09,0,0,1-8.79-2.25c-1.37-.44-2.73-.92-4.07-1.44l-1-.37c-.17-.07-1.44-.61-.32-.13-.75-.32-1.5-.66-2.24-1a67.25,67.25,0,0,1-8.91-5q-1-.69-2-1.41l-1-.73c.7.52,0,0-.27-.23-1.39-1.11-2.72-2.29-4-3.51a5,5,0,0,0-7.88,6.08,31.76,31.76,0,0,0,13.82,13.25c6.46,3.31,13.53,4.7,20.72,5.23a175.91,175.91,0,0,0,21.54,0,83.92,83.92,0,0,0,22.4-3.86c3.7-1.24,7.34-2.67,11.1-3.76,1.78-.51,3.57-.89,5.39-1.23.84-.15-1.2.09.19,0,.59,0,1.17-.1,1.75-.12a24.64,24.64,0,0,1,3.1.06,5,5,0,0,0,5-5,5.14,5.14,0,0,0-5-5Z"/><path class="cls-1" d="M206.27,96V113.5a5,5,0,1,0,10,0V96a5,5,0,1,0-10,0Z"/><path class="cls-1" d="M239.36,88.61l11.27,15a5.44,5.44,0,0,0,3,2.3,5.15,5.15,0,0,0,3.86-.5,5.05,5.05,0,0,0,2.3-3,4.86,4.86,0,0,0-.5-3.86L248,83.55a5.52,5.52,0,0,0-3-2.31,5,5,0,0,0-6.17,3.5,4.89,4.89,0,0,0,.51,3.87Z"/><path class="cls-1" d="M168.83,82.32,156.57,97.51a5.4,5.4,0,0,0-1.47,3.55,5,5,0,0,0,5,5,4.84,4.84,0,0,0,3.55-1.47l12.26-15.19a5.43,5.43,0,0,0,1.47-3.54,5,5,0,0,0-5-5,4.89,4.89,0,0,0-3.54,1.47Z"/><path class="cls-1" d="M16.17,94.75c7.82-12,20.64-20,34.39-23.38C67,67.32,84.43,70,100,76.18c7.47,3,15.11,7.17,19.65,14.06,1.81,2.74,6.26.17,4.43-2.59-4.5-6.83-11.4-11.44-18.76-14.74A97.17,97.17,0,0,0,79.5,65.3c-16.78-2.45-34.18-.09-48.84,8.77A58.93,58.93,0,0,0,11.74,92.16c-1.82,2.77,2.63,5.34,4.43,2.59Z"/><path class="cls-1" d="M13.21,99.29C23.86,110.22,39.37,113.83,54,115.48c16.66,1.87,34.16,1.41,49.41-6.27a49.59,49.59,0,0,0,18.74-16.07,2.58,2.58,0,0,0-.92-3.51,2.63,2.63,0,0,0-3.51.92c-8,11.64-21.69,17.79-35.29,19.87a103,103,0,0,1-24.88.29,105.38,105.38,0,0,1-21.07-3.79c-7.33-2.21-14.27-5.73-19.66-11.26-2.31-2.37-5.93,1.26-3.63,3.63Z"/><path class="cls-1" d="M44.4,73.53c-4.14-1.78-6.81,1.72-8.29,5.16-1.66,3.84-3.11,7.78-3.3,12-.36,7.88,4.07,14.86,8.31,21.13a2.64,2.64,0,0,0,3.51.92,2.59,2.59,0,0,0,.92-3.51c-3.24-4.79-6.92-10-7.54-15.94a20.55,20.55,0,0,1,1.35-9c.51-1.45,1.08-2.88,1.73-4.27a7.61,7.61,0,0,1,.74-1.34c.14-.18.39-.35.51-.54l.28-.16a.73.73,0,0,1-.81,0A2.65,2.65,0,0,0,45.32,77a2.59,2.59,0,0,0-.92-3.51Z"/><path class="cls-1" d="M90.91,75.54c8,6.16,9.09,18.71,3.28,26.56a2.57,2.57,0,1,0,4.43,2.59c7.65-10.34,4.88-25.88-5.12-33.58-1.09-.85-2.87-.17-3.51.92a2.64,2.64,0,0,0,.92,3.51Z"/><path class="cls-1" d="M45.29,77.27a92.32,92.32,0,0,1,20.57-3.08,95,95,0,0,1,10.4.21c2.54.19,5.49.41,7.44,2.23l1.13-4.29Q64.07,76.41,43,78.51l.68,5A66.59,66.59,0,0,1,71,79l-.69-5a106.34,106.34,0,0,1-17.72,1.61l.68,5a169.92,169.92,0,0,1,28.68-4.9,4.62,4.62,0,0,1,2.5.23,5.3,5.3,0,0,1,1.72,1.77,18.38,18.38,0,0,1,2.45,4.84A30.25,30.25,0,0,1,89.73,94a85.36,85.36,0,0,1-2.16,13.19c-.54,2.43,2.42,4.39,4.29,2.5a25.54,25.54,0,0,0-7.09-41.2,2.68,2.68,0,0,0-3.11.4,2.59,2.59,0,0,0-.4,3.11,43.66,43.66,0,0,1,7.35,20.8c.23,2.87.9,7.07-1.71,9.07a13.28,13.28,0,0,1-4,1.89c-1.93.64-3.9,1.17-5.87,1.65-4,1-8,1.63-12,2.26a68.06,68.06,0,0,1-10.26,1.11A16.56,16.56,0,0,1,46,106.81a12.33,12.33,0,0,1-5.12-6.87,29.58,29.58,0,0,1-1.5-10,12.22,12.22,0,0,1,.69-4,5.38,5.38,0,0,1,.85-1.43,3.05,3.05,0,0,1,1.28-.87L39,81.16,41,100c.3,2.85.43,5.87,1.9,8.41a7.58,7.58,0,0,0,6.66,3.94A2.58,2.58,0,0,0,52,110.44c.79-5-1.65-9.11-3.77-13.47A32.48,32.48,0,0,1,45.05,83.6c0-2.38-3.64-3.72-4.78-1.3C36.59,90.1,40.49,98.16,46,104A38.89,38.89,0,0,0,50.22,108c1.82,1.41,4.51,1.36,5.7-.83,1-1.91,0-4-.73-5.72l-2.67-6.13L46.37,81.24c-1.15-2.64-5.68-.75-4.69,2l9.62,26.4c.52,1.42,2.32,2.57,3.77,1.54,5.15-3.67,11.4-4.73,17.52-5.66,3.22-.49,6.44-.94,9.61-1.68,2.89-.68,6.81-1.44,8.86-3.75,2.49-2.8,1.34-7.14.47-10.37a31.68,31.68,0,0,0-4.33-9.76A11,11,0,0,0,78.52,75c-3.47-.24-7,.73-10.4,1.45A250.81,250.81,0,0,0,43,83.23a2.57,2.57,0,0,0,1.36,5A348.41,348.41,0,0,1,82.64,82.9l-.68-5L51.11,88.79a2.57,2.57,0,0,0,1.37,4.95l29.17-5.6c2.82-.55,2.2-5.22-.68-5a146.47,146.47,0,0,0-32.92,5.82l1.36,5A92.68,92.68,0,0,1,83,88.61l-.68-5L48.61,91.89A2.6,2.6,0,0,0,46.82,95,2.63,2.63,0,0,0,50,96.84l33.33-6.11-1.37-4.94L52,95c-3.18,1-1.86,5.62,1.36,5L81.79,94l-1.37-4.94A129,129,0,0,0,55,98.32a2.54,2.54,0,0,0-1.05,3.2A2.6,2.6,0,0,0,57,103a195.61,195.61,0,0,0,28.1-7.1,2.57,2.57,0,0,0-1.36-5,164.32,164.32,0,0,0-23.81,6.3,2.59,2.59,0,0,0-1.84,2.82,2.53,2.53,0,0,0,2.52,2.22,94.5,94.5,0,0,0,21.6-4.65l-2-4.69a94.61,94.61,0,0,0-8.44,5.43,2.61,2.61,0,0,0,.61,4.69,22.42,22.42,0,0,0,8.76,1l-2.22-1.27a1.07,1.07,0,0,1-.55,1.73,2.59,2.59,0,0,0-.92,3.51A2.62,2.62,0,0,0,81,109a6.22,6.22,0,0,0,2.39-8.75A2.54,2.54,0,0,0,81.15,99a18.66,18.66,0,0,1-7.39-.81l.61,4.68a92.33,92.33,0,0,1,8.44-5.42c2.47-1.41.83-5.66-2-4.69A88.78,88.78,0,0,1,60.6,97.17l.68,5a163,163,0,0,1,23.81-6.3l-1.36-5a195.61,195.61,0,0,1-28.1,7.1l2,4.69A122.81,122.81,0,0,1,81.79,94c3.22-.8,1.85-5.61-1.37-4.94L52,95l1.36,5,30-9.2c3.19-1,1.85-5.53-1.37-4.94l-33.33,6.1,1.37,5,33.65-8.32c2.87-.71,2.17-5-.68-5a97,97,0,0,0-34.9,5.44c-3.08,1.09-1.84,5.91,1.36,5A140.41,140.41,0,0,1,81,88.23l-.69-5-29.17,5.6,1.37,4.95L83.32,82.81A2.58,2.58,0,0,0,85.16,80a2.55,2.55,0,0,0-2.52-2.23A358.36,358.36,0,0,0,43,83.23l1.36,5q10.11-3.29,20.45-5.7c3.33-.78,6.68-1.56,10.06-2.12,2.33-.38,5.26-.58,7.09,1.19,2.06,2,3.27,5.13,4.14,7.79a32.66,32.66,0,0,1,1.12,4.35c.15.82.63,2.39,0,3.06s-2.29,1-3.27,1.3c-1.51.47-3,.84-4.59,1.16-2.8.57-5.63,1-8.45,1.4-6.41,1-13,2.28-18.36,6.12l3.77,1.53-9.62-26.4-4.69,2L47,95.42l2.47,5.68,1.19,2.72c.15.34.33.68.45,1a4,4,0,0,1,.16.59c-.24-.53,0-1,.86-1.44H53.5c-.64-.13-1.46-1.23-1.94-1.7-.78-.74-1.54-1.5-2.27-2.29a25,25,0,0,1-3.45-4.59c-1.77-3.1-2.73-7.16-1.14-10.53L39.92,83.6a38,38,0,0,0,2.9,13.8c.88,2.08,2,4,2.94,6.08a10.11,10.11,0,0,1,1.29,5.6l2.47-1.89c-1.63.07-2.45-1.54-2.83-3A50,50,0,0,1,45.78,97L44.1,81.16c-.16-1.55-1.52-3-3.25-2.47-7.59,2.53-7,12.23-5.9,18.56a22.85,22.85,0,0,0,4.48,10.55,16.5,16.5,0,0,0,9.91,5.62,37.23,37.23,0,0,0,11.59,0c4.53-.59,9.06-1.33,13.53-2.22a59,59,0,0,0,13-3.75,11.6,11.6,0,0,0,4.62-3.64,11.18,11.18,0,0,0,1.79-6.24,48.09,48.09,0,0,0-8.17-28.17l-3.51,3.51A21.1,21.1,0,0,1,93.87,87.5,20.76,20.76,0,0,1,88.23,106l4.29,2.5c1.93-8.64,3.79-18.08,1.18-26.78-1.2-4-3.65-9.19-7.82-10.73-2.45-.91-5.27-.32-7.78,0Q74,71.43,70,72.05q-9.12,1.38-18.09,3.63c-2.81.7-2.21,5.07.69,5a115.4,115.4,0,0,0,19.09-1.79,2.55,2.55,0,0,0,1.84-2.82A2.59,2.59,0,0,0,71,73.89,70.13,70.13,0,0,0,42.3,78.61a2.58,2.58,0,0,0-1.83,2.81A2.53,2.53,0,0,0,43,83.64q21.73-2.16,43.2-6.35A2.58,2.58,0,0,0,87.33,73c-2.56-2.39-5.81-3.19-9.2-3.56A84,84,0,0,0,66.81,69a98.81,98.81,0,0,0-22.88,3.29c-3.19.85-1.84,5.8,1.36,5Z"/><path class="cls-1" d="M65.7,63.33a21.57,21.57,0,0,1-.45-2.12c0-.08,0-.65,0-.3s0-.28,0-.3q-.06-.54-.09-1.08c0-.69,0-1.37,0-2.06q0-.54.06-1.08l.06-.54c0-.57-.07.44,0-.18H60.26a19.16,19.16,0,0,1,1.23,4.93l0-.26c0,.14,0,.28,0,.42l.06.63c0,.43.06.85.07,1.28,0,.84,0,1.69-.07,2.54h5.13V55.62l-5,.69a20.61,20.61,0,0,1,.53,2.09,9,9,0,0,1,.18,1.06c0-.37,0-.2,0,.06s0,.36.05.54a20,20,0,0,1,0,2c0,.35,0,.71,0,1.07,0,.18,0,.36,0,.54s-.1.78,0,.17l5,.68-.79-10.83a2.57,2.57,0,1,0-5.13,0l.08,8.68a2.57,2.57,0,1,0,5.13,0l-.08-8.68H61.48l.79,10.83a2.59,2.59,0,0,0,2.23,2.52,2.52,2.52,0,0,0,2.81-1.83,24,24,0,0,0-.7-10.32,2.57,2.57,0,0,0-5,.68v9.59a2.58,2.58,0,0,0,2.56,2.56,2.63,2.63,0,0,0,2.57-2.56,26.41,26.41,0,0,0-1.48-10.9,2.64,2.64,0,0,0-2.48-1.88,2.56,2.56,0,0,0-2.47,1.88,26,26,0,0,0,.49,10.39,2.57,2.57,0,0,0,5-1.37Z"/><path class="cls-1" d="M29.29,74.64a14.58,14.58,0,0,1-1.69-1.55,5.53,5.53,0,0,1-.8-.94c.32.57.07.08,0,0l-.35-.51a14,14,0,0,1-1.1-2c-.28-.61.12.37,0-.12-.06-.17-.13-.33-.18-.5-.14-.39-.25-.78-.36-1.18l-4.29,2.5c.28.3.56.62.82.94.13.14.25.29.37.44l.18.23c-.19-.24-.22-.29-.11-.14.47.64.93,1.29,1.36,2s.79,1.32,1.15,2c.17.34.35.68.51,1l.28.61c0,.09.07.18.11.26-.13-.31-.15-.34,0-.08l5-1.36L25.79,66l-4.69,2,5.5,7.33a2.74,2.74,0,0,0,1.53,1.18A2.57,2.57,0,0,0,31,72.67a60.67,60.67,0,0,1-4.35-8.2l-4.43,2.59c.33.58.64,1.16.93,1.76.15.3.28.6.42.91s-.1-.27,0,0l.18.47A28.34,28.34,0,0,1,25,74a2.56,2.56,0,1,0,4.94-1.36,31,31,0,0,0-3.25-8.19,2.59,2.59,0,0,0-3.51-.92,2.64,2.64,0,0,0-.92,3.51,60.67,60.67,0,0,0,4.35,8.2L31,72.67l-5.5-7.33a2.62,2.62,0,0,0-3.2-1,2.53,2.53,0,0,0-1.49,3l4.24,10.23a2.84,2.84,0,0,0,1.18,1.54,2.63,2.63,0,0,0,2,.25c1.19-.38,2.33-1.82,1.79-3.15a32.1,32.1,0,0,0-6-9.53,2.58,2.58,0,0,0-3.11-.4,2.64,2.64,0,0,0-1.18,2.89,17.29,17.29,0,0,0,5.87,9.12,2.78,2.78,0,0,0,1.81.75,2.64,2.64,0,0,0,1.82-.75c.85-.93,1.12-2.74,0-3.63Z"/><path class="cls-1" d="M105,75.23l7.87-9.62-4.38-1.82a8.08,8.08,0,0,1,0,1.1l0,.23c0,.2,0,.1,0-.3a2.46,2.46,0,0,0-.08.46c-.08.36-.18.71-.29,1.06a3.29,3.29,0,0,0-.16.44c.18-.69.07-.17,0,0a9.58,9.58,0,0,1-.49.89l-.26.39-.18.26c.23-.29.28-.36.16-.21s-.44.51-.68.75-.23.21-.35.31-.71.56-.09.09l3.51,3.51c.37-.59.75-1.16,1.17-1.72l.2-.28-.19.25a2.58,2.58,0,0,1,.33-.41c.24-.29.48-.57.73-.85a25,25,0,0,1,3.1-2.9l-4-3.11c-.56.81-1.13,1.61-1.73,2.4l-.22.29.06-.08-.34.43L107.71,68q-1.84,2.19-3.89,4.19l4,3.11,3.9-5.17a2.56,2.56,0,0,0-.92-3.51,2.64,2.64,0,0,0-2-.26,3,3,0,0,0-1.53,1.18l-3.9,5.17a2.59,2.59,0,0,0-.26,2,2.7,2.7,0,0,0,.92,1.33,2.56,2.56,0,0,0,3.37-.2,63.78,63.78,0,0,0,7.86-9.41,2.56,2.56,0,0,0-.66-3.31,2.62,2.62,0,0,0-3.37.2,27,27,0,0,0-6.14,6.95,2.62,2.62,0,0,0,.4,3.11,3,3,0,0,0,1.14.66,2.52,2.52,0,0,0,2-.26,11.87,11.87,0,0,0,3.73-4.32,12.12,12.12,0,0,0,1.28-5.61,2.59,2.59,0,0,0-1.58-2.34,2.51,2.51,0,0,0-2.8.53L101.4,71.6a2.73,2.73,0,0,0-.75,1.81,2.64,2.64,0,0,0,.75,1.82,2.6,2.6,0,0,0,3.63,0Z"/></svg>